<svg width="260" height="294" viewBox="0 0 260 294" fill="none" xmlns="http://www.w3.org/2000/svg">
<path d="M129.874 293.889C201.066 293.889 259.827 235.127 259.827 164.061C259.827 92.9955 200.94 34.2344 129.749 34.2344C58.6829 34.2344 0.0473633 92.9955 0.0473633 164.061C0.0473633 235.127 58.8085 293.889 129.874 293.889ZM54.2885 85.3364C66.7187 73.4084 82.0371 64.2427 98.9871 59.0948C90.0728 68.0094 82.5385 80.6908 76.8885 96.0088C68.0998 93.2467 60.4408 89.6054 54.2885 85.3364ZM160.887 59.2204C177.837 64.3682 193.03 73.4084 205.46 85.4619C199.308 89.7309 191.774 93.2467 182.986 96.1344C177.336 80.6908 169.801 68.1349 160.887 59.2204ZM94.3414 100.403C101.247 81.9464 110.664 68.3861 121.086 63.4894V103.166C111.543 102.789 102.628 101.91 94.3414 100.403ZM138.663 63.4894C149.084 68.3861 158.627 81.9464 165.407 100.403C157.246 101.91 148.206 102.789 138.663 103.166V63.4894ZM20.7645 155.273C22.5222 134.053 30.4324 114.466 42.7371 98.3945C50.2706 104.045 60.1896 108.941 71.7411 112.583C68.4765 125.516 66.4675 139.954 65.8398 155.273H20.7645ZM193.908 155.273C193.407 139.954 191.273 125.516 188.007 112.583C199.558 108.941 209.478 104.045 217.011 98.3945C229.316 114.466 237.227 134.053 238.984 155.273H193.908ZM138.663 155.273V120.744C149.838 120.367 160.636 119.111 170.556 117.103C173.443 128.78 175.451 141.711 175.954 155.273H138.663ZM83.7942 155.273C84.4228 141.711 86.3056 128.78 89.1942 117.103C99.2385 119.111 109.911 120.367 121.086 120.744V155.273H83.7942ZM20.7645 172.85H65.8398C66.3421 188.42 68.4765 202.984 71.8665 216.169C60.4408 219.809 50.5216 224.58 42.9882 230.104C30.5579 213.909 22.5222 194.196 20.7645 172.85ZM83.7942 172.85H121.086V208.007C110.036 208.383 99.2385 209.639 89.3185 211.648C86.3056 199.72 84.4228 186.536 83.7942 172.85ZM138.663 208.007V172.85H176.08C175.451 186.536 173.443 199.72 170.43 211.648C160.51 209.639 149.838 208.383 138.663 208.007ZM188.007 216.169C191.273 202.984 193.407 188.42 194.034 172.85H238.984C237.227 194.196 229.191 213.909 216.76 230.104C209.227 224.58 199.434 219.809 188.007 216.169ZM138.663 225.584C148.206 225.961 156.994 226.84 165.281 228.347C158.501 246.427 149.084 259.863 138.663 264.759V225.584ZM94.5928 228.347C102.754 226.84 111.669 225.961 121.086 225.584V264.759C110.79 259.863 101.373 246.427 94.5928 228.347ZM54.6651 243.037C60.8175 238.894 68.3509 235.379 77.0142 232.616C82.5385 247.683 90.0728 260.113 98.7356 268.903C82.0371 263.88 66.9698 254.84 54.6651 243.037ZM182.86 232.616C191.523 235.379 199.057 238.894 205.208 243.037C192.779 254.84 177.711 263.88 161.013 268.903C169.801 260.113 177.21 247.683 182.86 232.616Z" fill="black"/>
<path d="M104.304 32.2062L149.989 19.0676C155.284 17.5473 159.116 13.3302 157.705 9.14191C156.375 5.35526 151.16 4.29383 146.424 6.04372L130.353 11.9532C129.262 12.3549 128.49 12.3262 127.213 11.6664L104.969 0.363733C104.198 -0.0378939 103.346 -0.0952742 102.575 0.134245L100.739 0.76536C99.9671 1.02354 99.7276 1.9989 100.393 2.77343L113.75 18.0924L105.262 21.2192L92.5436 16.3422C91.7188 16.0553 91.027 16.1989 90.2819 16.9448L89.4837 17.7193C88.8717 18.3218 88.8451 19.1251 89.3773 19.7273L98.69 31.0299C99.9937 32.579 101.909 32.8946 104.304 32.2062ZM94.3529 52H152.012C153.448 52 154.619 50.7378 154.619 49.1888C154.619 47.6397 153.448 46.3776 152.012 46.3776H94.3529C92.9427 46.3776 91.7454 47.6397 91.7454 49.1888C91.7454 50.7378 92.9427 52 94.3529 52Z" fill="black"/>
</svg>
